<svg id="Layer_1" data-name="Layer 1" xmlns="http://www.w3.org/2000/svg" viewBox="0 0 478.35 478.47">
  <title>compound</title>
  <path d="M366.61,381.92c32.46,50.69-8.91,99.66-50.8,96.4-24-1.87-42.67-13.27-51.46-36.5-3.78-10-9.23-12.47-19.23-12.34-41.54.53-83.1.24-124.66.24q-2.62-3,.59-5.4c11-5.73,23-3.43,34.58-3.6,25.32-.35,50.64,0,76-.19,8.65-.08,17.77.3,21.55-10.22,8.34-29.32,25.77-49.43,56.71-55.81a70.37,70.37,0,0,1,17.52.29c10.1,2.34,19.87,5.5,28.25,12C360.23,371.11,365.44,375.05,366.61,381.92Z" transform="translate(0 0)" fill="#8ad6f7"/>
  <path d="M120.56,426.81a5.64,5.64,0,0,0-.1,2.91c-7.7,17.88-16.56,34.69-35.7,43.26-30.71,13.76-66.52.25-79.74-30.33A59.81,59.81,0,0,1,36.87,363.5c4.57-1.91,9.38-3.21,14.08-4.79a22.86,22.86,0,0,1,17.33-4.16c10.58,2.07,20.62,5.5,29.36,12.09a151.79,151.79,0,0,1,14,13.94c6.56,8.59,10,18.48,12.18,28.94C124.64,415.64,124.05,421.5,120.56,426.81Z" transform="translate(0 0)" fill="#fed05c"/>
  <path d="M51,220.24c-5.67-2.34-11.49-4.39-17-7.08C4.1,198.48-8,164.92,5.52,134.81c12.82-28.45,46.64-41.9,76.42-30.38q6.87,2.66,13.74,5.34c7.75,1.43,10.89,8.47,16,13.11,6.33,8.3,9.61,17.89,11.89,27.92a71.27,71.27,0,0,1,.42,17.39c-6.56,30.44-25.7,48.49-55.41,56.14C62.14,225.59,56.08,225.05,51,220.24Z" transform="translate(0 0)" fill="#f2705a"/>
  <path d="M109.12,96.46c-1.29-11.12-8.55-20.33-8.87-32.09-.82-30.65,16-54.57,45.33-62.45,26.72-7.17,55.78,6.14,67.49,33.38,5.12,11.91,11.37,14.94,23.46,14.76,40.46-.62,80.94,0,121.41.1a5.15,5.15,0,0,1-3.13,5.16c-23.95,5.61-48.28,1.57-72.42,2.65-15.49.69-31-.69-46.57,2.09,25.77,2,51.63,1.15,77.45,1.79,14.76.37,29.9-2.87,44.21,3.55a5.13,5.13,0,0,1,2,5.65c-7.11,6.82-16.17,5.3-24.66,5.37-30.35.27-60.71.43-91.05,0-13-.2-22.54,3.44-28.75,15.69-9,17.82-25.25,26.57-43.69,31.88-7.32.58-12.33,3.37-13.28,11.71-.64,5.64,0,12.52-7.7,14.73-1.62-.91-3.6-2.18-3.58-3.84.2-17.15-9.71-27.51-23.38-35.43-4.11-11,5.63-15.24,10.81-21.52,8.32-10.11,20.33-17.32,27-31.89-11.48-.11-15,7.4-20.57,11.56C129.48,77.58,123.85,92.3,109.12,96.46Z" transform="translate(0 0)" fill="#4ebfa9"/>
  <path d="M357.61,52.68a5.46,5.46,0,0,0,.33-2.53c5.25-9,7.23-19.58,14.34-27.86,16.91-19.68,41.29-27,65.24-18.82,23.69,8.09,40,29.82,40.8,54.38.81,24.38-14.11,47.62-36.92,57.25-4.54,1.91-9.32,3.24-14,4.84a23.62,23.62,0,0,1-17.83,4.11c-9.55-2.38-19.6-3.86-25.89-12.83-2.19-9.71,5.56-14.27,10.6-20.19,8.23-9.7,19.76-16.64,26-30.67-11-1.46-14.49,7-20.16,11.25-10.5,8-16.15,22.46-31.77,23.58-9.22-5.71-12.09-14.12-10.48-24.46a6.85,6.85,0,0,0-.06-2.78C354.83,62.89,354,57.81,357.61,52.68Z" transform="translate(0 0)" fill="#f2705a"/>
  <path d="M427.32,258.36c3.44,1.35,6.89,2.69,10.32,4.05,23.4,9.26,38,26.06,40.31,51.27,2.26,24.41-8,44.06-29.15,56.27-21.61,12.47-43.68,12.33-64.47-3.12-1.42-11.35,8.8-15.26,14.31-22.11,6.63-8.25,16.63-14,21.81-28-14.49,3.34-19.45,13.43-27.2,19.57-7.93,6.27-12.67,17.37-25.22,16.72-9.45-5.48-10.53-15.44-13.25-24.54a70.33,70.33,0,0,1-.51-17.75c6.47-30.6,25.62-48.75,55.45-56.44C416.2,253,422.26,253.55,427.32,258.36Z" transform="translate(0 0)" fill="#f2705a"/>
  <path d="M427.32,258.36l-18.9.26c-7-5.1-6.81-12.86-6.91-20.16-.45-32.74-.39-65.48-.05-98.22.08-7.41.38-15,6.84-20.35l19.1,0Q427.37,189.15,427.32,258.36Z" transform="translate(0 0)" fill="#475f70"/>
  <path d="M51,220.24l18.9-.27c7,5.11,6.81,12.87,6.91,20.17.45,32.73.39,65.47,0,98.2-.08,7.41-.38,15-6.83,20.35l-19.1,0Q51,289.47,51,220.24Z" transform="translate(0 0)" fill="#475f70"/>
  <path d="M370,352.13q18.81-18,37.64-36.09c4.68-4.47,10-9,16-2.88s1.42,11.29-3.14,16q-18.09,18.78-36.1,37.64l-17.72,15.09-11.95-12.07C354.38,359.3,361.67,355.28,370,352.13Z" transform="translate(0 0)" fill="#445b6b"/>
  <path d="M109.12,96.46c12.81-13.2,25.43-26.58,38.51-39.5,4.77-4.71,10.63-9.8,17.26-2.43,6.26,7-.25,11-4.3,15.29C148.35,82.74,136,95.54,123.66,108.38c-2.61,7.57-7.49,12.75-15.46,14.68-5.51-3.17-9.36-7.9-12.51-13.29Z" transform="translate(0 0)" fill="#425c6c"/>
  <path d="M119.77,408.41q-5.8-13.29-11.6-26.56c3.33-10.45,8.06-19.14,21.42-17,38.92,15.17,59.34,8.36,80.38-27.25,4-6.72,8.27-12.71,16.62-13,25.9-.95,51.82-1.65,77.7.44a11.69,11.69,0,0,1,7.86,4.53c4.53,10.09,5.08,19.9-1.94,29.21-27.7,5.67-42.83,24.66-52.44,49.5A382.13,382.13,0,0,1,119.77,408.41Z" transform="translate(0 0)" fill="#fefefe"/>
  <path d="M310.21,358.8,309,328.69c-25.81-3.59-51.76-1-77.64-1.47C218.43,327,214.32,322,219.29,310,236,300,254.41,305.3,272,304.8c32.36-.91,32-.29,32.58-33,.34-17.81-3.33-36,3.46-53.41,7.94-6.62,15-2.68,22,1.83,7.95,15.73,4.66,32.71,4,49-.79,20,.84,36.57,24.49,41.12q0,9,0,17.94c-15.76,4.54-25.81,14.78-30.43,30.45Z" transform="translate(0 0)" fill="#435c6c"/>
  <path d="M119.77,408.41l138-.11c4.57,15.36-2.18,18.93-16.73,18.65-40.15-.76-80.32-.19-120.48-.14Z" transform="translate(0 0)" fill="#486071"/>
  <path d="M328.08,358.68c.37-30.22.37-30.22,30.43-30.45,4.27,7.75,4.39,17.48,11.45,23.9l-15.3,17.72Z" transform="translate(0 0)" fill="#fdfdfd"/>
  <path d="M305.74,388.35c-3.22,7.54-8.17,14.28-17.82,15.41-4,.46-8.12-1.46-6.86-6.13,2.37-8.8,8-15.18,17.62-16.34C302.7,380.81,306,382.51,305.74,388.35Z" transform="translate(0 0)" fill="#f8fcfe"/>
  <path d="M70.06,358.69Q70,289.34,69.93,220c25.73-8.44,43.52-24.53,49.87-51.67,9.24-7.08,19-6.42,29-2,7.76,7.51,5.45,17.32,5.61,26.4.31,17.39.18,34.79,0,52.19-.08,9.12-2.31,16.54-10.8,22.14-39.51,26.08-42.28,33.44-32.43,79.92a32.5,32.5,0,0,1,.5,5.57c-1.42,9.37-5.93,15.94-16,17.44Z" transform="translate(0 0)" fill="#fefefe"/>
  <path d="M95.78,370l13.66-15.28c8.81-18.51,25.23-30.18,39.66-43.54,5.44-5,12.57-5.7,18.39.23,5.12,5.22,5,11.85.54,16.89-12.62,14.22-23.88,30.05-41.76,38.62-9.94.25-10.33,12.06-18.1,15Z" transform="translate(0 0)" fill="#425c6c"/>
  <path d="M37.6,381.09c5.53-.1,9.21,1.77,8.36,6.24-1.76,9.31-7.4,15.65-17.35,16.6-4.64.44-6.93-2.7-6-7.08C24.37,388.06,30.48,383.33,37.6,381.09Z" transform="translate(0 0)" fill="#fefcf7"/>
  <path d="M149.79,169.47l-30-1.16q0-9,0-17.95c9.58-8.6,19.69-7.48,30-1.61,4.28-3.95,3.09-9.24,2.61-13.84-1.26-12.15,3.56-17.17,15.65-15.07,4.54,23.26,20.61,25.61,40.72,24.6,16.19-.81,33.07-3.69,48.9,3.63,5.23,6.78,8.57,13.79,2.74,21.94-20.4,7.84-41.66,3-62.52,3.88-22.79,1-23.13,1.47-24.26,24.52-1,20.14,4.77,40.89-4.79,60.37-13.86,6.28-17.5-.08-17.71-13.17C150.84,220.23,153.31,194.79,149.79,169.47Z" transform="translate(0 0)" fill="#435c6c"/>
  <path d="M149.89,148.75l-30,1.61-11.64-27.3,15.46-14.68C144.57,113.93,154.51,126.6,149.89,148.75Z" transform="translate(0 0)" fill="#fcfdfd"/>
  <path d="M45.85,128.17c-2,9-7.46,15.06-16.5,17.2-5.56,1.31-8.09-2.47-7.11-7.51,1.83-9.37,8.5-14.6,17.3-16.73C44.43,120,45.39,124.07,45.85,128.17Z" transform="translate(0 0)" fill="#fdf4f2"/>
  <path d="M258.45,150.31c-23.38,0-46.81-1-70.13.27-15.48.83-23.53-2.55-20.18-19.69.69-3.55,0-7.36,0-11,22.34-5.78,39.94-17.79,47.36-40.37C219,69,226.1,71,233.13,70.92c41.58-.15,83.15-.14,124.73-.19l11.88,22.68c1.38,11.46-6.47,15.17-15.21,18.15-7,.71-13.26-2.43-19.84-3.92-29.7-6.75-50.57,2.74-65,29.25C266.88,142.05,266.15,149.17,258.45,150.31Z" transform="translate(0 0)" fill="#fefefe"/>
  <path d="M357.61,52.68A24.45,24.45,0,0,1,357.79,68c-40.47,0-80.93,0-121.4-.3-6-.05-15.57,3.35-15.69-7.53-.11-11.19,9.64-7.45,15.52-7.49C276.69,52.38,317.15,52.6,357.61,52.68Z" transform="translate(0 0)" fill="#475f70"/>
  <path d="M138.2,21.93c4.94,0,8.15,1.82,7.23,6.54-1.82,9.44-7.77,15.4-17.34,16.85-4,.61-8-1.41-6.79-6.24C123.5,30,129.1,23.78,138.2,21.93Z" transform="translate(0 0)" fill="#f1faf8"/>
  <path d="M358.55,310.29c-30.32-.16-30.32-.16-30.33-31.24q0-29.51-.05-59c.49-6.16,5.85-7.27,10-9.55,33.57-18.34,42.12-40.63,29.13-76.28-1.05-2.88-2.27-5.7-2.55-8.81,3.12-9.58,8.64-16.49,19.5-17.41,6.61,6.79,16.16,7.66,24,11.91l.12,138.73C382.69,267.06,364.9,283.16,358.55,310.29Z" transform="translate(0 0)" fill="#fefefe"/>
  <path d="M384.26,108,367,123.38c-7.52-1.5-11.91-5.9-12.6-13.69q7.69-8.14,15.38-16.28Q388.35,75.57,407,57.77c5.12-4.87,11.25-9.88,17.28-2.91,5,5.76.28,11.31-4.23,16C408,83.15,396.17,95.59,384.26,108Z" transform="translate(0 0)" fill="#455b6b"/>
  <path d="M404.26,29c-1.4,8.38-7,13.65-15.36,16-4,1.14-8.15-.21-7.8-5,.72-9.77,6.79-15.64,16.14-17.73C401.64,21.25,404.2,23.73,404.26,29Z" transform="translate(0 0)" fill="#fefaf9"/>
  <path d="M387.74,305.23c-5.77.06-7.49-3.27-6.8-7.21,1.65-9.36,7.81-15.24,16.82-17.27,5.3-1.2,8.23,2.33,6.92,7.67C402.42,297.66,395.57,302.49,387.74,305.23Z" transform="translate(0 0)" fill="#fdf6f4"/>
  <path d="M149.79,169.47c6.28,24.2,2,48.83,2.56,73.23.3,11.72,3,17.87,15.74,15.49,28.13,0,52.22,24.06,52.19,52.19-2.38,12.75,3.82,15.42,15.51,15.73,24.42.63,49-3.77,73.24,2.59-24.27.07-48.54.79-72.76,0-12-.41-18.06,2.66-23.16,14.69-14.92,35.17-55.61,45.47-86.83,23.55q17.79-18.82,35.58-37.64c4.36-4.62,9.22-9.59,3.15-15.84-5.92-6.09-11.15-2.14-15.87,2.48l-39.7,38.81c-7.41-17.33-12.78-35-6.71-53.9,5-15.43,14.15-29.13,29.38-33.95,16.07-5.1,18.33-14.21,17.71-28.67C148.83,215.33,149.7,192.38,149.79,169.47Z" transform="translate(0 0)" fill="#4ebfa9"/>
  <path d="M220.28,310.38Q208.51,270,168.09,258.19c0-25.48.59-51-.07-76.43-.27-10.56,2.87-13.89,13.54-13.62,26.08.65,52.2.09,78.3,0,10.46,8.05,12,22.09,21.94,31.19,8.8,8.06,21.5,9.35,28.52,19.27-.08,26.1-.64,52.21,0,78.3.27,10.67-3.06,13.81-13.62,13.54C271.26,309.8,245.76,310.33,220.28,310.38Z" transform="translate(0 0)" fill="#fefefe"/>
  <path d="M310.32,218.62q-41.93-8.55-50.45-50.46-.74-8.92-1.43-17.85c20.4-49.11,46.17-60,95.92-40.63l12.6,13.7q35.57,65.55-38.79,96.66Z" transform="translate(0 0)" fill="#fed05c"/>
  <path d="M127.56,305.38c-4.29-.71-7.6-3.29-6.42-7.38,2.74-9.44,8.59-16.58,19.2-17.23,4.83-.3,6.22,4,5.12,7.87C142.88,297.62,136.64,303.15,127.56,305.38Z" transform="translate(0 0)" fill="#f2faf8"/>
  <path d="M305.49,128.91c-3.21,8.68-8.78,15-18.22,16.49-4.31.66-7.47-2.44-6.34-6.8,2.5-9.65,8.48-16.7,18.9-17.62C303.75,120.64,306,124.51,305.49,128.91Z" transform="translate(0 0)" fill="#fefbf2"/>
</svg>
