<svg id="Layer_1" data-name="Layer 1" xmlns="http://www.w3.org/2000/svg" viewBox="0 0 467.12 469.25">
  <title>danger</title>
  <path d="M235.49,339.39c-10.59.58-24.6-3.6-38.84-6.78-19.73-4.41-31.57-16.43-33-36.19-.76-10.88-7.09-12.95-14.69-15.21-36.34-10.86-46.73-30-34.93-64.91,2-5.8.07-10.22-2.66-15.4C67.19,117,127.21,22.68,214.27,7.91,281-3.4,350.49,37,371.8,88.05c15.79,37.82,14.48,74.69-1.6,111.55-3.09,7.08-4.08,12.73-1.06,20.55,11,28.55-1.73,52.49-32.12,59.85-12.54,3-20.82,6-20.73,21.65.06,12-7.56,21.12-19.74,26.11C278.25,335.25,259.44,339.2,235.49,339.39Z" transform="translate(-6.44 -5.88)" fill="#e7e9e8" stroke="#000" stroke-miterlimit="10" stroke-width="0.25"/>
  <path d="M287.44,379.26c20.35,15.2,44,13,66.54,9.92,14.47-1.95,26.37-3.76,35.34,9.92,8.56,13,5.81,24-5.75,33.71-4.84,4-3.63,9.93-4.08,15.34-1.14,13.79-8.92,22.88-21.9,26.07-11.89,2.93-20.65-2.63-27.56-13-23.24-34.79-56.28-54.2-97.52-60-14.28-7.25-29.68-11.8-44.2-18.46-.07-4.38-2.82-5.84-6.58-7.4-21.91-9.11-43.61-18.71-65.46-28-25-10.59-51.06-10.09-77.18-6.41-12,1.68-22.29-.57-28.49-10.92C4,319.09,5.48,307.59,15,298.52c6.21-5.95,9.48-12.29,8.58-20.95-1.14-10.91,5.22-17.09,14.51-20.63,9.62-3.67,19.19-4.32,26.83,4.36,4.8,5.45,8.86,11.57,13.71,17,15.63,17.39,33.2,31.5,55.75,40,35.84,13.43,70.94,28.85,106.35,43.43C258,363,273.25,369.68,287.44,379.26Z" transform="translate(-6.44 -5.88)" fill="#cdd5df" stroke="#000" stroke-miterlimit="10" stroke-width="0.25"/>
  <path d="M287.44,379.26c-17-2.12-31.69-10.35-46.75-17.61,33.77-14,67.36-28.48,101.35-41.95,26.81-10.63,49.54-25.95,65.78-50.23,7.75-11.6,18.49-18.81,32.68-14.14,13.49,4.44,21,14.72,18.69,29.57-1,6.49,3.44,8.09,6.41,11.72,6.38,7.76,10.51,16.55,5.81,26.88-5,11.09-13.47,18.38-25.91,15.95C386.44,327.93,338.07,357.88,287.44,379.26Z" transform="translate(-6.44 -5.88)" fill="#acb2b9" stroke="#000" stroke-miterlimit="10" stroke-width="0.25"/>
  <path d="M188.31,382.75c17.67-.88,32.09,6,44.2,18.46-31.87,11.75-60.86,27.4-80.29,56.9-7.3,11.09-18.16,17-31.43,12.69-13.06-4.2-19.37-14.11-17.3-28.19.88-6-2.68-8.62-6.74-11.68-9.93-7.51-12.35-16.86-7.94-28.93,4.64-12.7,14-16.07,25.78-15.49C139.31,387.74,164.09,391,188.31,382.75Z" transform="translate(-6.44 -5.88)" fill="#adb2b9" stroke="#000" stroke-miterlimit="10" stroke-width="0.25"/>
  <path d="M190.08,185.16A80,80,0,0,1,155,176.47c-16-8.32-22.31-26.38-15.28-41.83a33.2,33.2,0,0,1,42.77-17.27c11.54,4.47,21.2,12,29.51,20.9,8.71,9.34,13.83,20.37,7.46,33.13C213.47,183.45,202.3,185.72,190.08,185.16Z" transform="translate(-6.44 -5.88)" fill="#415a6b" stroke="#000" stroke-miterlimit="10" stroke-width="0.25"/>
  <path d="M288.37,185.06c-12.54.77-23.77-2.4-28.95-14.7-5-11.88-.76-22.84,7.79-32a86.1,86.1,0,0,1,26.37-19.52c18.8-8.79,38.15-2,46.12,16.16,7.47,17.07-.42,35.14-19.27,43.25C310.26,182.67,299.59,185.32,288.37,185.06Z" transform="translate(-6.44 -5.88)" fill="#415a6b" stroke="#000" stroke-miterlimit="10" stroke-width="0.25"/>
  <path d="M265.84,266c-.34,7.89-4.37,13.63-15.94,8.62-6.45-2.8-12.72-3.19-19.33-.39-15.46,6.55-17-3.78-15.83-14.44,1.67-15.1,11.77-26.22,20.65-37.72,2.06-2.66,4-3.71,7.48-1.47C250,225.22,265.79,253.75,265.84,266Z" transform="translate(-6.44 -5.88)" fill="#435b6c" stroke="#000" stroke-miterlimit="10" stroke-width="0.25"/>
</svg>
