<svg id="Layer_1" data-name="Layer 1" xmlns="http://www.w3.org/2000/svg" viewBox="0 0 476 271.79">
  <title>drone</title>
  <path d="M165.46,127.3c3.61-10,11.28-12,21-12q55.56.44,111.12,0c9.7-.07,17.37,2,21,12,6.4,13.76,6,28,2.8,42.38-1.1,4.92-3.22,9.59.13,14.36,2.86,4.11,5,9,8.68,12.2,34.93,30.52,40.6,70.09,35.86,113.12-.83,7.55,0,17.19-10,17.42-11.4.27-10.71-10-11-18.18-.12-3.15,0-6.3,0-9.45-.05-57.45-.05-57.45-45.18-105.46,0,23.52,1,42.52-.26,61.36-1.63,23.72-15.5,39.5-37.46,47.46-21.12,7.65-41.08,4.07-58.45-10.28-15-12.42-21.45-29.17-21.7-48.37-.2-14.26,0-28.53,0-47.23-25.08,29.19-50.61,52.8-42.33,92.51,1.63,7.84.2,16.33.19,24.52,0,7-2.54,13.24-10.11,13.44-8.14.22-9.63-6.59-9.86-13.36-1.38-41.47-5.52-83.6,31.8-114.48,4.65-3.85,7.34-10.07,10.95-15.19,5.17-7.62-1.32-14.44-1.55-21.71C160.61,150.4,159.64,138.44,165.46,127.3Z" transform="translate(-4 -55.31)" fill="#415a6b"/>
  <path d="M165.46,127.3c-1.92,18.87,3.83,38.14-2.92,56.77-.58-3.6.36-7.88-3.66-10.1-9.67-5.32-48.32-.24-56.4,7.76-7.66,7.59-16.25,9.38-22.56.45s-15.17-10.8-24-12.51c-10.54-2-18-5.86-18.15-17.68-.21-12.81,9.53-19.81,19-19.7,18.93.22,20-10,18.73-23.82,11.11-8,22.39-7.61,33.82-.72-3,18.57,4.1,26.66,23.39,23.49C143.53,129.46,155.15,133.93,165.46,127.3Z" transform="translate(-4 -55.31)" fill="#e6e9e8"/>
  <path d="M321.47,184c-6.78-18.61-1-37.88-2.93-56.74,15.43,7.44,31.95,4.2,47.68,3.07,14.32-1,5.8-14.85,8.48-22.62,11.43-6.89,22.71-7.28,33.82.72-1.27,13.78-.21,24,18.72,23.81,9.5-.11,19.23,6.89,19,19.7-.2,11.81-7.61,15.65-18.14,17.69-8.87,1.71-17.59,3.7-24.06,12.47-7.29,9.87-16.07,6.54-23.8-1.81-7.14-7.72-49-11.54-56.56-5.17C321.81,176.75,322.16,181,321.47,184Z" transform="translate(-4 -55.31)" fill="#e6e8e8"/>
  <path d="M408.52,108.47l-33.82-.72c-22.45-4.52-45.57-6.3-68.35-17.25,18-11.33,37.67-13,56.69-16.67,6.95-2.38,14.35-1.69,21.31-5.9,12.67-7.65,23.35,5.49,35.58,5.66,20.17,2.9,40.3,6,60.07,16.29C456.51,102.65,431.76,102.66,408.52,108.47Z" transform="translate(-4 -55.31)" fill="#425b6c"/>
  <path d="M4,89.88C23.77,79.54,43.89,76.49,64.07,73.59c19-9.9,38-6.44,56.89.24,18.86,3.08,37.71,6.18,57.15,15.92-22.88,12.14-46.33,13.29-68.81,18l-33.82.72c-23.24-5.81-48-5.82-71.48-18.59" transform="translate(-4 -55.31)" fill="#425b6c"/>
  <path d="M121,73.83C102,72.33,83,71,64.07,73.59c3.65-2.13,8.59-3.39,10.75-6.54,10.81-15.76,20.52-15.46,31.77-.24C109.4,70.61,116.07,71.57,121,73.83Z" transform="translate(-4 -55.31)" fill="#ced6e0"/>
  <path d="M419.93,73.59C401,71,382,72.33,363,73.83c2.16-1.07,4.91-1.62,6.4-3.29C387.65,50.2,404.07,56.72,419.93,73.59Z" transform="translate(-4 -55.31)" fill="#ced6e0"/>
  <path d="M242.84,283.27c-20.59.39-37.7-15.84-38-36.06-.3-19.8,17-37,37.26-36.91,19.58,0,36.13,15.78,37,35.23C280,265.38,263.22,282.88,242.84,283.27Z" transform="translate(-4 -55.31)" fill="#f0f0f1"/>
  <path d="M257.47,249.43c-2.48,8.68-6.81,13.88-14.83,13.81-10.78-.11-15.79-6.59-16-16.94-.19-7.82,7.07-17.3,10.4-14.55C243.81,237.38,250.35,244.27,257.47,249.43Z" transform="translate(-4 -55.31)" fill="#8bd7f7"/>
</svg>
