<svg id="Layer_1" data-name="Layer 1" xmlns="http://www.w3.org/2000/svg" viewBox="0 0 474.21 474">
  <title>gears</title>
  <path d="M280,25c-.21-7.92-2.85-17.4,10.82-20.49,9.91-2.23,16.78-2.29,19.43,9.12a22.27,22.27,0,0,0,2.29,5.06c3.89,7.32,5.33,16,17.44,15.93,11.93-.09,13.29-8.91,17.79-15.88,4.73-7.33,4.7-18.81,20.32-14.95s13.1,13.28,13,23.7c0,8.28-2.3,16.7,7.84,22.66,10.53,6.18,16.1-1.4,23.29-5.18,8.13-4.29,14.18-12.63,25.1-1.41s4.41,18.4-1.33,27c-4.83,7.28-9.87,13.82-4,23.56,5.52,9.19,13.52,6.51,21.25,7.22,8.37.77,18.83-4.79,23.37,8.45,3.6,10.47,5.32,18.94-8.3,22.82-3.49,1-6.66,3.24-9.85,5.15-15,9-14.34,21.16.69,30.66,7.07,4.47,20,3.9,19.16,16.44s-5.17,22.89-21.82,19.75c-8.57-1.61-17.64-4.82-24.11,6.75-6.39,11.41,2,17.22,6.21,24.78s12,13.68,1.27,23.55c-8.58,7.91-14.13,8.52-23.49,2.05-6.45-4.45-11.82-12.86-22.48-9.59-14.57,4.48-13.47,15.49-12.87,26.84.48,9.06,2.77,18-11.32,20.83-9.62,1.91-15.36,1.81-18.75-8a41.11,41.11,0,0,0-3.48-6.54c-3.87-6.91-6.57-14-17.13-14.33-11.66-.41-14.73,7.25-18.32,15-5.14,11.09-10.68,17.94-25.2,12.37-13.47-5.16-9.24-14.14-8.07-22.77,1.22-8.92,2.12-16.4-7.59-22.33-9.37-5.72-14.76.15-21.75,3.68-8.19,4.14-14.58,16.51-26.59,3.7-8-8.52-8.63-14.24-2.18-23.48,4.61-6.59,13-12.26,9.9-22.53-4.31-14.06-15.31-14.42-26.87-12.71-12.18,1.8-19.6-1.05-22-14.89-1.4-8,.57-11.47,7-14.37,4.51-2,8.7-4.77,13.25-6.68,6.83-2.87,11.08-6.74,11.07-15.11s-5.26-11.14-10.79-15.5c-7.51-5.92-23.73-3.33-20.24-21.11,2.54-12.94,7.82-18.46,21.21-15.62,8.75,1.86,17.42,5.14,24.54-5.73S227,76,223.19,68.14c-3.52-7.36-14-13.29-2.45-23.52,9.6-8.49,16.8-7.1,26-.52,7.15,5.1,13.67,12,24.91,6.06C283.09,44.08,279.74,35,280,25Z" transform="translate(-5 -3)" fill="#66c5b8"/>
  <path d="M32.07,421.19c-8.3.22-9-6.49-12.07-10.75s-2.53-7.84,1.57-11.15a48.9,48.9,0,0,0,6.71-6.39c4.09-4.84,11.55-7.32,9.17-16.49s-8.59-10.3-16.17-12.27c-5.69-1.47-14.61.44-15.91-9.32C4,344.38,6.06,336.75,18.6,335.41c7.85-.84,15.78-1.88,18.69-11.94,3.15-10.89-5.67-14.14-11.16-19.09-5.9-5.32-10.26-9-5.36-18.26,5.44-10.29,12.27-8.24,20-5.49s14.81,5.56,22.06-1.95c7.09-7.34,2.13-14-.07-20.48-3-8.71-2.68-14.53,6.48-19.92,9.91-5.83,13.13,1.47,18.15,6.34,5.5,5.32,9,12.94,19.71,9.88,10.15-2.9,8.57-10.66,10.42-17.4,1.92-7,2.74-13.93,13.51-14s13.77,5.35,15.4,14.09c1.3,7,1,14.37,10.67,17.32,10.86,3.3,14.14-5,19.62-10.13,5.2-4.91,8.5-11.69,18.27-5.94,9.44,5.55,8.46,11.91,6.26,20.25-5.77,21.91.6,27.84,23.28,21.41,7.87-2.24,13.4-2.79,18.38,5.81,5.13,8.87,1.13,13.05-4.7,18.6-5.27,5-14.48,7.44-11.42,18.79s12,10.91,20.15,12.43c7.75,1.46,11.43,4.68,11.83,13.39.45,9.9-4.53,12.33-12.48,14.53-24.85,6.88-26.53,13.87-7.73,31.87,5.87,5.62,9.63,9.82,3.93,18.53-5.53,8.46-11,7.43-18.78,4.89-7-2.28-14.1-7.56-21.81,1-7.34,8.12-2.66,14.83-.26,22.13,2.49,7.55,3.38,13.35-5.68,18.3-8.68,4.73-13.15,2.36-18.52-4.33-4.76-5.92-8.44-14.24-19-11.84-11.33,2.59-11,11.9-12.55,20.26-1.52,8.12-4.81,12.71-14.7,12.6-9.45-.11-11.16-5.31-13-12.14-2.13-8-1-17.72-12.33-20.64C95.25,441.47,92,450.1,86.84,455.69s-9.39,10.41-18.45,4.83c-8.33-5.14-8.84-10.75-6-18.56,1.26-3.48,2.87-7.06,3-10.66C66,420.06,61,413.84,49,416.27,43,417.49,37.15,419.68,32.07,421.19Z" transform="translate(-5 -3)" fill="#f2705a"/>
  <path d="M41.63,75.68C62.31,94.35,72.2,83.91,79.35,60c2.36-7.86,23.05-2.93,24.89,6.6,3.93,20.44,13.69,23.12,29.4,11.58,7.29-5.35,11.33-.36,15.52,4.23,3.88,4.24,9.36,6.87,5.52,15.32-10,22-9.54,22.7,12.16,29.91,8.94,3,8.43,9.25,8.61,16.13.18,7.16-2.45,11.07-10,13.06-20.9,5.54-22.53,8.71-11.79,26.94,4.89,8.28,1.23,12-3.71,17.17-5.67,6-10,8.9-18.62,3.17-14.49-9.62-21.2-6.54-26,10.48C103,222.92,99.49,227.29,90.11,227c-8.8-.29-12.77-3.07-15-12.26-4.2-17.17-11.5-20-26.24-10.68-7.89,5-12.39,3.93-19-2.15-7.58-7-7.69-12.34-1.78-20.09,10-13.12,3.08-21.37-9.94-24.08C8,155.6,5,151.39,5.05,141.64c.07-9.22,3.51-12.7,12.5-14.64,15.14-3.28,17.71-12.18,9.39-27.11C22.24,91.46,30.14,76.32,41.63,75.68Z" transform="translate(-5 -3)" fill="#fed05c"/>
  <path d="M273.1,151.12c.11-30.72,26.24-57,56.52-56.88,31.53.14,58.58,27.19,58,58-.6,30-27.41,56.55-57.45,56.83C298.11,209.32,273,183.8,273.1,151.12Z" transform="translate(-5 -3)" fill="#fdfefe"/>
  <path d="M132.37,290.77c32.41.18,58.83,26.61,58.86,58.86s-26.64,59.16-58.72,59.6-60.31-28-59.95-60.43C72.9,316.84,100,290.59,132.37,290.77Z" transform="translate(-5 -3)" fill="#fefefe"/>
  <path d="M89.92,164.91c-13.08-1.27-21.21-8.12-21.41-22.24-.2-14.5,8.89-21.87,21.93-22.14,13.57-.28,22.33,8.53,22.17,22.06C112.45,155.75,104.66,164.13,89.92,164.91Z" transform="translate(-5 -3)" fill="#fefdfb"/>
  <path d="M354.89,152.08c.08,13.94-10.42,24.21-24.73,24.18-13.82,0-25.62-10.94-25.73-23.81-.11-13.48,10.9-25,24.24-25.45C343.52,126.55,354.8,137.34,354.89,152.08Z" transform="translate(-5 -3)" fill="#67c6b9"/>
  <path d="M130.46,369.57c-11.73-1.17-18.38-7.94-18.18-20.47.2-12.83,8.46-19.54,20-19.75,13.25-.23,20.67,8.81,19.91,21.54C151.47,362.66,143.84,369.69,130.46,369.57Z" transform="translate(-5 -3)" fill="#f2725c"/>
</svg>
