<svg id="Layer_1" data-name="Layer 1" xmlns="http://www.w3.org/2000/svg" viewBox="0 0 475.64 475.11">
  <title>globe</title>
  <path d="M238.91,22.59c21.42,5.63,43.89,1.52,65.4,7.83,24.3,7.12,46.88,17.83,69.17,29.42,7.45,3.55,15.72,5.58,21.67,11.88,12,9.48,22.91,19.81,29,34.28,2.24,12.35-.28,23.35-9.16,32.56-7.95,5.18-17.4,8.38-26.14,7.55-24-2.26-42.2,8.47-59.75,22.26A20.38,20.38,0,0,1,319,172.63c-36-8.42-71.35-19.77-108.08-25.29-9.56-1.44-20.06-.11-28.28-7.2-6.22-9-15.81-15-21.6-24.44-2.26-15.21-5.18-30.47,2.66-45.07,15.26,2.89,13.81,15.73,15.64,26.53.69,4.07-2.08,9.53,2.74,11.83s7.86-2.4,10.83-5.29c10.63-10.32,27.21-15.82,28.6-34.38-18.3-7.78-38,12.16-55.3-3.63-3-12.9,1.19-23.22,11.14-31.53,12.55-5.07,26.07-6.94,38.75-11.64C223.74,19.55,231.32,22.77,238.91,22.59Z" transform="translate(-15.88 -3.15)" fill="#89d6f7" stroke="aqua" stroke-miterlimit="10" stroke-width="0.25"/>
  <path d="M447.13,337.94Q413.65,401.6,349.94,435c-5.2,8.25-13.47,11.82-22.25,14.64-12.4,2.51-24,8.22-36.81,9.17Q250.4,436.89,236.33,393A166.29,166.29,0,0,0,243,363.83c10.5-14.94,24.67-25.38,40.93-33.23,12.47-2.34,19.27,4.57,25.12,14.4,8.33,14,11.68,29.77,17.12,44.81a61.29,61.29,0,0,0,8.47,16.41c6.67,8.72,13,7.17,15.72-2.7,3.55-13.06,6.5-27.09,3.85-40.16-3-14.95-4.64-28.92.68-43.48,2.16-5.91,1-12.22-1.9-18,.43-12.63,11.36-22.19,8.75-36.7-1.17-6.49,10.46-6,17-4,12,3.7,17.67,14.34,23.69,24.52,1.48-1.56,2.14-1.94,2.27-2.45,2.37-9.29,1.91-22.78,13.93-23.14,11.67-.35,20.55,10.91,22.48,21.43,2.62,14.23,9.41,25.69,16.2,37.62C458.25,327.79,453.5,333.31,447.13,337.94Z" transform="translate(-15.88 -3.15)" fill="#8ad6f7" stroke="aqua" stroke-miterlimit="10" stroke-width="0.25"/>
  <path d="M72.18,361.05c-14.13-27.26-27.13-54.84-32.36-85.6-2.61-15.36-1.07-30.67-2.23-45.95-3.16-5.4-4.83-10.91-1.36-16.83,6.63-4.83,9.26,1.27,10.84,5.11,9.35,22.66,27.32,35,48.09,46.58,16.2,9,34.12,20.4,27.24,46.06-2.5,9.32,4.16,19.79,10.95,26.54,17.44,17.33,21.67,39.24,24.87,61.92-10.54,12.22-24.46,14.25-39.43,13.12-15.8-4.72-24.38-17.66-33.74-29.71C79,376.28,75.48,368.73,72.18,361.05Z" transform="translate(-15.88 -3.15)" fill="#8ad6f7" stroke="aqua" stroke-miterlimit="10" stroke-width="0.25"/>
  <path d="M264.34,456.85a262.78,262.78,0,0,1-56.6-3.76c-30.29-5.32-38.37-20.48-24.55-47.95-.38-10,7.47-10,14.05-11.6a109.78,109.78,0,0,1,25.38,4.77C238.33,416.52,256.05,433.33,264.34,456.85Z" transform="translate(-15.88 -3.15)" fill="#8ad6f6" stroke="aqua" stroke-miterlimit="10" stroke-width="0.25"/>
  <path d="M436,126c9,10.79,17.35,21.89,18.49,36.64-2.69,4-4.37,6.86-.87,12.67,8.18,13.57,12.44,28,5.39,44.6-2.57,6,10.67,13.3,3.17,22.27-6.93,3.34-11.94-.95-16.59-4.76-10.9-9-23.9-15.05-33.88-25.21a178.1,178.1,0,0,1-7.33-26.38C415.89,166.37,419.08,142.54,436,126Z" transform="translate(-15.88 -3.15)" fill="#f1f1f2" stroke="aqua" stroke-miterlimit="10" stroke-width="0.25"/>
  <path d="M198.18,395.38l-15,9.76-26,11.67c-3.94,5.41-9.24,7.53-15.82,6.62-3.09.06-6.22-.22-9.25.23-50.16,7.47-69.9-13.11-59.95-62.61,7,4.23,9.48,12.07,14.3,18,3.75,15.77,12.74,26.28,29.28,29.24,14.8,1.41,28-3.76,41-9.95,8.08-10.92,20-14.72,32.49-17.44C195.64,383.61,200.88,387,198.18,395.38Z" transform="translate(-15.88 -3.15)" fill="#465e6f" stroke="aqua" stroke-miterlimit="10" stroke-width="0.25"/>
  <path d="M436,126c-9.33,20.21-15.69,41.86-29.1,60.09-7.14,2.15-10.27-2.63-13.26-7.66,1.51-16,9.71-28.94,19.46-41.09,5.36-10.62,8.9-21.65,7.79-33.76C417.26,87.45,408.19,76.8,391.32,74L373.48,59.84c6.63-1.13,13.23-3.05,19.89-3.26,30.11-1,49.35,21.13,44.81,51.31C437.28,113.91,434.72,119.68,436,126Z" transform="translate(-15.88 -3.15)" fill="#465e6f" stroke="aqua" stroke-miterlimit="10" stroke-width="0.25"/>
  <path d="M264.34,456.85c-14.84-17.22-29.32-34.7-39.95-55,3.17-5.31,6.19-10.92,14-7.13,14.4,23.08,28.47,46.44,52.26,61.55,15,4.15,27.74-.24,38.85-10.54q10.22-5.38,20.44-10.76C339.43,483.41,307.24,491.64,264.34,456.85Z" transform="translate(-15.88 -3.15)" fill="#455e6f" stroke="aqua" stroke-miterlimit="10" stroke-width="0.25"/>
  <path d="M413.89,211.54c17.72,7.1,30.7,21.62,47.37,30.37,5.17.09,6.16,4.09,7.37,7.88,3,3.88,5.83,7.84,8.9,11.64,26.59,32.89,14.11,64.31-30.4,76.51q3.78-9.29,7.58-18.57c7.72-11.5,24.66-20.26,11.26-38-6.93-9-12.31-19.35-22.15-25.88-11.9-11.16-28-16.61-39-29C404.41,219.39,406.55,213.88,413.89,211.54Z" transform="translate(-15.88 -3.15)" fill="#435c6d" stroke="aqua" stroke-miterlimit="10" stroke-width="0.25"/>
  <path d="M178.05,36.74c-6.29,9-8.93,19.12-9.61,29.9a2.67,2.67,0,0,1-1,4c-5.52,15.06-2.36,30.79-3.52,46.19-6.39,4.09-11.75,2.35-16.51-2.92-4.71-9.9-2.23-20.5-3-30.8a63.77,63.77,0,0,1,.24-9.27c.44-8.46,2.86-16.16,8.65-22.56a48.75,48.75,0,0,0,3.46-6.43c16.64-46.41,45-54.1,82.18-22.24-6.64,5.91-14.65,2.56-22.07,3.26C202.08,22.94,188.86,25.56,178.05,36.74Z" transform="translate(-15.88 -3.15)" fill="#455e6f" stroke="aqua" stroke-miterlimit="10" stroke-width="0.25"/>
  <path d="M149.31,73.56l-.42,7.83c.05,34-27,45-50.18,59.37-11.57,1.32-23.11,8.76-34.7.16,4.79-18.43,15.66-32.77,30.06-44.73,9.24-4.25,21,1.39,29.68-8.09,1.33-1.45,4.86-3.56,6.57-6.44C134.66,74.33,139.31,67.65,149.31,73.56Z" transform="translate(-15.88 -3.15)" fill="#edf0f2" stroke="aqua" stroke-miterlimit="10" stroke-width="0.25"/>
  <path d="M64,140.92l37.55-4.45c8.6-2.12,17.13-6.7,25.93-.63,3.93,4.8,4.07,10,1.56,15.46-5,5.89-12,5.59-18.71,5.66-27.76.3-53.49,6.94-76.14,23.65-5.45,1.65-10.65,1.82-15-2.64.69-16.11,13.45-21.89,24.9-28.42C50.33,146,57.34,143.76,64,140.92Z" transform="translate(-15.88 -3.15)" fill="#455d6e" stroke="aqua" stroke-miterlimit="10" stroke-width="0.25"/>
  <path d="M149.31,73.56c-15.54.47-18.19,11.19-17.45,24.92-15-15.4-12.68.77-16.47,8.88-3.36-14-15.09-5.65-21.32-11.17,16.65-19,36-34.52,59.2-44.94Z" transform="translate(-15.88 -3.15)" fill="#8dd7f7" stroke="aqua" stroke-miterlimit="10" stroke-width="0.25"/>
  <path d="M468.63,249.79q-3.67-3.94-7.37-7.88c3.51-12.35-10.64-17.12-11.83-27.73,4.54-4.74,6.78,3.69,11.94,1.45-11.5-10.9,3.6-28.38-10.73-39.18-3.2-2.42-11.77-.44-8.84-8.46,2-5.45,7.89-4.85,12.68-5.4C467.33,190.34,471.7,219.46,468.63,249.79Z" transform="translate(-15.88 -3.15)" fill="#98daf7" stroke="aqua" stroke-miterlimit="10" stroke-width="0.25"/>
  <path d="M19.18,178l14-.05c3.56,11,10.37,21.44,5.74,33.82q-.64,8.88-1.3,17.76C22.4,215.56,9.9,200.65,19.18,178Z" transform="translate(-15.88 -3.15)" fill="#506776" stroke="aqua" stroke-miterlimit="10" stroke-width="0.25"/>
  <path d="M141.38,423.43c4.27-4.6,10.33-4.94,15.82-6.62,0,7.48,9.11,11.21,7.7,21C156.17,433.82,147.16,431.68,141.38,423.43Z" transform="translate(-15.88 -3.15)" fill="#90d4f1" stroke="aqua" stroke-miterlimit="10" stroke-width="0.25"/>
  <path d="M183.72,138.3a791.41,791.41,0,0,1,137.43,30.85,65.31,65.31,0,0,1,44.52,15.53c1.61,7.95-2.76,12.94-8.51,17.27-16.74,1.11-30.46-8.77-45.8-12.83-12.51-3.31-24.65-8-37.14-11.55C243.78,169,212,166.29,181.84,156.18,178.37,149.79,177.59,143.68,183.72,138.3Z" transform="translate(-15.88 -3.15)" fill="#435c6d" stroke="aqua" stroke-miterlimit="10" stroke-width="0.25"/>
  <path d="M363.86,186.1l-42.71-16.95c10.07-7.61,20-15.5,30.31-22.72,5-3.46,10.91-7.22,17.12-4.89,15.72,5.89,29.52-4.77,44.51-4.25-3.28,14.72-11.81,27.08-18.2,40.4A47.4,47.4,0,0,1,363.86,186.1Z" transform="translate(-15.88 -3.15)" fill="#f1f1f1" stroke="aqua" stroke-miterlimit="10" stroke-width="0.25"/>
  <path d="M183.72,138.3l-.42,16.36c.11,9.77-6.49,14.32-14.07,18.13-6.79,2.65-13.74,4.07-21,2.33a34.27,34.27,0,0,1-7.74-2.55c-7.31-5.3-16-9.77-13.31-21.31q.1-7.5.2-15c-.77-14.83,8.61-19.61,21.1-21.34l15.47,1.88C173.78,121,181.08,127.48,183.72,138.3Z" transform="translate(-15.88 -3.15)" fill="#f1705b" stroke="aqua" stroke-miterlimit="10" stroke-width="0.25"/>
  <path d="M167.42,70.61l1-4c20.21,4.92,39.55-9.4,59.87-2.73-.47,29.59-28.21,37-44.52,53.45-5.26,5.3-11.51-4.72-10.07-8.27C179.68,94.45,169.34,83.37,167.42,70.61Z" transform="translate(-15.88 -3.15)" fill="#f1f2f2" stroke="aqua" stroke-miterlimit="10" stroke-width="0.25"/>
  <path d="M178.05,36.74c11.36-20.53,18.23-22.46,38.79-10.9C204.8,32.62,191.55,35.1,178.05,36.74Z" transform="translate(-15.88 -3.15)" fill="#f0f4f7" stroke="aqua" stroke-miterlimit="10" stroke-width="0.25"/>
  <path d="M391.32,74c25.52-1.4,31.13,4.2,29.56,29.58Z" transform="translate(-15.88 -3.15)" fill="#f4f8f9" stroke="aqua" stroke-miterlimit="10" stroke-width="0.25"/>
  <path d="M353.94,300.79c13.59,3.53,8.32,14.08,5.77,20.7-5.2,13.49-3.42,25.59-.62,39.29,3.12,15.28-.66,31.4-4.3,46.86-1.51,6.4-4.23,11.73-11.82,12.1-6.79.34-8.85-5-12.14-9.57-13.52-18.89-14.22-42.84-25.55-62.72-5.63-9.88-10.94-16-22.76-13,2.4-16.49,16-21.72,28.32-28.24C324.5,298.76,337.53,286.1,353.94,300.79Z" transform="translate(-15.88 -3.15)" fill="#f1f2f2" stroke="aqua" stroke-miterlimit="10" stroke-width="0.25"/>
  <path d="M353.94,300.79c-2.25,3-5,3.36-7.8,1-9.06-7.43-16.37-6.21-23.09,3.54-2,3-5.9,7.25-10.32,1.72,3.86-14.17,14-22.81,26.11-29.74,3.5.77,7.57,4.87,10.24,2.09,3.41-3.54-3.12-5.64-3.65-9.1,5.7-17,17.22-29.31,31.7-39.25,9.92-1.43,19-7.54,29.57-5.44a216.65,216.65,0,0,1,40.71,27.72c3.45,7.79,8.08,14.94,12.4,22.23,4.66,7.86-16.05,11.51-3,20.25,6-4.66,1.32-16.59,12.23-17.86,11.92,20.83,9.74,27.11-14.34,41.4-5.63-10.29-18.42-16.09-15.76-31.77,1.78-10.49-10-16-16.42-23.18-4.73-5.27-7-.71-9.48,3.21-5.24,8.41-2.44,18.16-4.86,30.37-16-10.92-17.5-38.26-43.78-33.48C373.25,280.1,361.66,289.8,353.94,300.79Z" transform="translate(-15.88 -3.15)" fill="#f1f2f2" stroke="aqua" stroke-miterlimit="10" stroke-width="0.25"/>
  <path d="M339.31,279.13l-26.58,27.95a181.7,181.7,0,0,0-30.2,27.32l-36.94,28.94c-7.83.5-8-5.51-9.12-10.71,2.46-12.89,14.75-16.85,22.56-24.9,34.71-26.67,62.77-59.83,90.74-93.07,3.55-4.22,7-8.51,12.53-10.44,6.62.09,13.51-.19,13.59,9.37L347,271.05A10.46,10.46,0,0,1,339.31,279.13Z" transform="translate(-15.88 -3.15)" fill="#445c6d" stroke="aqua" stroke-miterlimit="10" stroke-width="0.25"/>
  <path d="M237.66,352.08l7.93,11.27c1.95,11.46.18,22.06-7.2,31.39l-14,7.13c-9.37.41-18.27-1.09-26.2-6.48L190.1,382.7c-7.86-11.51-4-21.43,4.1-30.82a40.77,40.77,0,0,1,18.21-10.07C222.58,340.89,232.38,341,237.66,352.08Z" transform="translate(-15.88 -3.15)" fill="#f1705a" stroke="aqua" stroke-miterlimit="10" stroke-width="0.25"/>
  <path d="M329.5,445.75c-11.83,20.72-18.16,22.44-38.85,10.54C303.34,451.83,315.72,446.23,329.5,445.75Z" transform="translate(-15.88 -3.15)" fill="#eff4f6" stroke="aqua" stroke-miterlimit="10" stroke-width="0.25"/>
  <path d="M198.79,352c-8.17,8.74-9.4,19.45-8.69,30.71l-33.38,15.67c-5.39-29.51-23.42-52.86-37.95-77.93-1.49-2.56-3-6.21-2.34-8.75,9.21-33.73-17.35-38.25-38.05-49.51-12.86-7-23-19.35-30.72-32.37-3.35-5.65-3.72-13-8.77-18.07-.21-11.56-12.19-21.12-5.74-33.82,17.41-20.81,42.33-22.54,66.49-25.73,9-1.19,18.33-.67,27.5-.93A61.42,61.42,0,0,0,142,170.07c-10.46,17.3-20.54,34.75-26.15,54.4-2.33,8.13-7.65,8.35-14.38,4.76C93.6,225.05,88,228.51,85.35,236c-3.72,10.46,4.1,7.65,10,9.1,7.59,1.85,8.89,11.16,13.77,16.57,3.09,3.42,4.3,10.16,10.92,7.47C147,258.18,163,274.52,178.64,292,188.17,311.07,199.16,329.62,198.79,352Z" transform="translate(-15.88 -3.15)" fill="#f2f2f2" stroke="aqua" stroke-miterlimit="10" stroke-width="0.25"/>
  <path d="M115.76,408.33c-24.76,1.15-30.4-4.47-29.28-29.24Z" transform="translate(-15.88 -3.15)" fill="#f7fafc" stroke="aqua" stroke-miterlimit="10" stroke-width="0.25"/>
  <path d="M375.89,233.59l-13.19-8.31c-11-6.24-11.21-14.88-5.58-24.84l6.74-14.34c8.92-8,19.76-9,31-8.41l12,8.35c5.88,7.53,7.17,16.31,7,25.5q-3.58,7.05-7.18,14.1A41.25,41.25,0,0,1,375.89,233.59Z" transform="translate(-15.88 -3.15)" fill="#fdd05c" stroke="aqua" stroke-miterlimit="10" stroke-width="0.25"/>
  <path d="M469.05,278c-6.83,7.89-3.34,20.23-12.3,28.34-3.14-6.21-6.29-11.73-10.62-16.64-3.32-3.76-7.87-9.89,4.49-6.75,8.83,2.24,7.95-5.39,3.79-10-5.21-5.79-8.83-11.54-7-19.56C456,260.33,463.72,268.12,469.05,278Z" transform="translate(-15.88 -3.15)" fill="#93d7f4" stroke="aqua" stroke-miterlimit="10" stroke-width="0.25"/>
  <path d="M148.44,114.92c-8.67,5.5-16.93,11.4-21.1,21.34l-25.78.21c14.29-12,29-23.51,42.63-36.19,4.75-4.41-1.57-13.63,4.7-18.89Z" transform="translate(-15.88 -3.15)" fill="#9ed1e8" stroke="aqua" stroke-miterlimit="10" stroke-width="0.25"/>
  <path d="M237.66,352.08c-7.64-4.3-15.63-7.37-24.59-7.08-7.49-4.62-9.66-12.66-12.5-20.1A683.58,683.58,0,0,1,164.7,192.48c-1.22-7.33-2.69-14.77,2.47-21.4l16.13-16.42c31.48,3.92,62.74,8.91,92.76,19.7-1.84,13.31-13.76,25.27-5.23,40,.74,1.28-.61,3.53-1.72,5.07-9.25,12.81-12.72,26.52-10.34,42.57.55,3.69,1.68,7.47.44,10.95-6.92,19.58-4.23,38.73,2,57.79Z" transform="translate(-15.88 -3.15)" fill="#8ad6f7" stroke="aqua" stroke-miterlimit="10" stroke-width="0.25"/>
  <path d="M261.25,330.79c-7.76-7.87-13.61-17.82-11.12-28.28,4.74-20,1-40.49,6.17-60.47,2.46-9.48-3-19.71-8.16-28.82,6-1.53,7.5,2.7,10.2,4.82,2.51,2,5.09,4.33,7.59.54,1.24-1.88,2.57-5.65,1.68-6.69-14.1-16.48.91-26.13,8.45-37.53,28.25,4.88,54.31,16.55,81.06,26.08a52.74,52.74,0,0,0,5.57,24.85C332.59,264,300.11,300.46,261.25,330.79Z" transform="translate(-15.88 -3.15)" fill="#f2f2f2" stroke="aqua" stroke-miterlimit="10" stroke-width="0.25"/>
  <path d="M175.5,293.64c-12.73-9.72-21.52-26.3-41.38-23.64-1.71.22-3.57-1-5.33-.9-6.85.31-13.49,18.81-20.11,1.18-3.23-8.58-14.74-11.94-11.7-22.45-7-2.41-10.64,12-16,2.88-4.83-8.12-3.92-18.07,4.66-24.93,8.26-6.61,16.33-8.61,22.58,4.85,9.52-22.78,12.81-46.77,33.78-60.55l8.4,2.13c3.54,4.25,6.86,8.54,7.66,14.33,4.21,30.4,12.05,60,19.4,89.74C178.86,282.16,180.52,288.35,175.5,293.64Z" transform="translate(-15.88 -3.15)" fill="#8ad6f7" stroke="aqua" stroke-miterlimit="10" stroke-width="0.25"/>
  <path d="M175.5,293.64c-8.43-40.47-20.33-80.23-25.15-121.44l16.82-1.12c6.72,60.24,24.35,117.6,45.9,173.92l-14.28,7Q187.14,322.82,175.5,293.64Z" transform="translate(-15.88 -3.15)" fill="#435c6d" stroke="aqua" stroke-miterlimit="10" stroke-width="0.25"/>
  <path d="M339.31,279.13q3.82-4,7.66-8.08c5.9.36,10.29,3.08,12,8.81.78,2.67-1.7,4.62-4,4.94C348.89,285.67,341.58,289.06,339.31,279.13Z" transform="translate(-15.88 -3.15)" fill="#f1f2f2" stroke="aqua" stroke-miterlimit="10" stroke-width="0.25"/>
</svg>
