<svg id="Layer_1" data-name="Layer 1" xmlns="http://www.w3.org/2000/svg" viewBox="0 0 480.35 420">
  <title>laptop</title>
  <path d="M413.38,250.24q33.9,71.77,67.78,143.55c-7.27,6.28-16.2,5.89-24.9,5.9q-215.28.17-430.55,0c-8.7,0-17.62.38-24.9-5.9L68.59,250.24C76,244,85,244.9,93.69,244.89q147.3-.21,294.59,0C397,244.9,406,244,413.38,250.24Z" transform="translate(-0.81 0)" fill="#f2f2f2"/>
  <path d="M413.38,250.24H68.59q0-108.75-.06-217.51C68.55,7,75.13.12,100.35.09Q241-.09,381.62.09c25.22,0,31.81,6.9,31.82,32.64Q413.53,141.48,413.38,250.24Z" transform="translate(-0.81 0)" fill="#425c6c"/>
  <path d="M.81,393.79H481.16c-7.13,21.78-13.54,26-40.78,26q-183.48.07-367,0c-13.11,0-26.24.49-39.31-.15C17.27,418.84,3.48,413.24.81,393.79Z" transform="translate(-0.81 0)" fill="#ced6e0"/>
  <path d="M242.46,329.8c34.32,0,34,.12,47.65,33.91,4,10,1.29,14.52-8.63,14.63-27.35.3-54.71.22-82.06-.09-6-.07-10.78-2.26-9.32-10.37,4.3-23.9,20.77-38.08,44.9-38.08Z" transform="translate(-0.81 0)" fill="#cfd6e0"/>
  <path d="M203.49,319.42c-17.45,0-34.91.21-52.35-.14-4.15-.08-11.24,2.74-10.71-5.86.35-5.62,5-6.39,9.62-6.39q56.1,0,112.2,0c4.61,0,9,.22,8.76,6.61-.29,6.64-5.46,5.68-9.55,5.71C242.14,319.48,222.81,319.41,203.49,319.42Z" transform="translate(-0.81 0)" fill="#415a6b"/>
  <path d="M324,290.84c17.79-2.83,14.88,12.11,17.25,21,3,11.24-7,7-12.08,7.8-17.68,2.59-13.58-12.41-15.86-21.15C310.88,289.13,319.38,291.78,324,290.84Z" transform="translate(-0.81 0)" fill="#546a79"/>
  <path d="M139.93,281.14q-.27,1.56-.63,3.09c-18.57,8.75-37.17,5.89-55.78.15l3.11-7.74c15.14-7.71,31.3.69,46.82-2.82C136.57,273.11,140.31,276.4,139.93,281.14Z" transform="translate(-0.81 0)" fill="#425b6c"/>
  <path d="M278.52,269.72c-1.24-2.17-2.88-6-.45-6.49,16.95-3.38,34-4.32,50.9.67.89.26.94,3.36,1.38,5.13C313.17,276.59,295.88,275.81,278.52,269.72Z" transform="translate(-0.81 0)" fill="#435b6c"/>
  <path d="M225.2,288c5.48.32,12-.79,11.79,7.84-.27,9.78-7.83,7.78-13.68,7.9-5.45.12-12.12,1.06-11.83-7.6C211.79,286.62,219.23,288.38,225.2,288Z" transform="translate(-0.81 0)" fill="#647885"/>
  <path d="M258.17,303.79c-7,0-13.92.48-13.18-9,.67-8.65,7.69-6.4,12.84-6.66,6.42-.32,13.33-.2,12.64,9.1C269.84,305.83,262.65,303.09,258.17,303.79Z" transform="translate(-0.81 0)" fill="#647885"/>
  <path d="M158.59,288.16c4.78.31,10.73-.73,10.76,6.65,0,10.58-8.11,9-14.62,8.77-4.24-.18-11.2,2.49-10.87-5.72C144.24,288.5,151.41,288,158.59,288.16Z" transform="translate(-0.81 0)" fill="#5d7280"/>
  <path d="M189.32,303.84c-4.82-.71-12.17,1.8-11.38-7.41.74-8.67,7.59-8.43,13.88-8.35,5.48.06,12-.81,11.52,7.82C202.81,305.32,195.44,303.43,189.32,303.84Z" transform="translate(-0.81 0)" fill="#637784"/>
  <path d="M292.21,303.81c-6.6-.17-13.72.71-13.59-8.61.12-8.62,7-6.94,12.25-7.1,6.46-.19,13.08.34,13.18,9C304.16,306.4,296.56,302.79,292.21,303.81Z" transform="translate(-0.81 0)" fill="#637784"/>
  <path d="M357.49,288.27c8.27-.51,14.06,2.25,14.14,9.62.09,8.9-7.82,5.19-12.44,5.67-6.31.65-13.13.22-12.93-8.68C346.45,286.19,353.69,288.89,357.49,288.27Z" transform="translate(-0.81 0)" fill="#5d7280"/>
  <path d="M139.93,281.14c-17.08-9.59-35.63-1.84-53.3-4.5l3.71-6.31c6.3-5.48,12.74-5.68,19.32-.52,4.14,4.43,8.08,4.65,11.75-.57q10.67-6.66,21.34,0C142.55,273.37,143.69,277.83,139.93,281.14Z" transform="translate(-0.81 0)" fill="#9ca8b0"/>
  <path d="M135.3,288.61c.66,6.19,2.4,14.24-6.49,14.4-6.33.12-17,7.07-19-6.76C114.54,281.14,125.51,286.85,135.3,288.61Z" transform="translate(-0.81 0)" fill="#5b707e"/>
  <path d="M278.52,269.72l51.83-.69q2.14,6.08,4.28,12.14c-7.38,1.48-15.76-3.29-22.29,3.55-7.12,2.7.19-17.18-11.48-7.34-7.8,2.63-15,1.43-21.67-3.32C279,272.62,278.74,271.17,278.52,269.72Z" transform="translate(-0.81 0)" fill="#aab4bb"/>
  <path d="M394.8,303.65c-6.61-.13-13.63.86-14.76-8-1-7.8,4.95-7,9.87-7.42,7.68-.63,14.45,1.39,15.34,9.83C406.18,306.82,398.24,302.06,394.8,303.65Z" transform="translate(-0.81 0)" fill="#586d7c"/>
  <path d="M102.8,292.38c-1.52,15.67-14.5,13.28-22,10.32-10.41-4.08-1.29-9.88,2.43-14.42C90.2,287.36,98.16,281.93,102.8,292.38Z" transform="translate(-0.81 0)" fill="#586d7c"/>
  <path d="M362.54,306.88c5.42.55,12.76-1.51,13.24,6.42.55,9.09-7.46,5.64-12.09,6-5.3.45-12.48,1.31-13-6.4C350.15,303.64,358.38,308.38,362.54,306.88Z" transform="translate(-0.81 0)" fill="#475f6f"/>
  <path d="M116.87,319.57c-3.92-1.21-11.24,2.37-10.75-5.67.57-9.36,8.74-6.84,14.33-6.75,4,.07,11.42-3,10.9,5.19C130.78,321.44,122.78,319,116.87,319.57Z" transform="translate(-0.81 0)" fill="#475f6f"/>
  <path d="M81.82,319.37c-3.48-1.13-10.89,2.86-11-4-.14-9.74,8.46-8.78,15-8.25,3.92.31,11.27-3,10.65,4.77C95.91,319.8,88.76,320,81.82,319.37Z" transform="translate(-0.81 0)" fill="#485f70"/>
  <path d="M402.12,319.39c-8.11.29-16.06,1.18-16.78-8.19-.54-7,6.17-4,9.6-4.07,6.31-.19,14.92-2.57,16.16,7.11C412.16,322.52,404.28,317.67,402.12,319.39Z" transform="translate(-0.81 0)" fill="#485f70"/>
  <path d="M293.87,319.44c-5.71-.26-12.89,1.3-12.73-6.86.17-9.11,8.12-4.89,12.73-5.36,4.38-.45,10.73-2,11.3,5.44C305.9,322.33,298,318.17,293.87,319.44Z" transform="translate(-0.81 0)" fill="#415a6b"/>
  <path d="M102.8,292.38c-5.64-5.67-13.25-1.93-19.62-4.1.11-1.3.23-2.6.34-3.9l55.78-.15-4,4.38c-8.8,1.55-19.4-2.93-25.49,7.64C109.62,291.09,107.76,288.93,102.8,292.38Z" transform="translate(-0.81 0)" fill="#c0c7cc"/>
  <path d="M279.19,274.06c7.28.75,14.93-.95,21.67,3.32.45,13.61-9.93,7.5-15.73,7.95C276.46,286,277.45,279.83,279.19,274.06Z" transform="translate(-0.81 0)" fill="#556b7a"/>
  <path d="M147.65,281.32c-1.29-5.08,3.15-8.16,4.3-12.38,7.1-3.33,14.16-4.52,21.09.44-.67,5.2,3.42,11.48-3.51,15.23C163.06,278.11,155,282.31,147.65,281.32Z" transform="translate(-0.81 0)" fill="#9da9b1"/>
  <path d="M203.38,269.64c1.45,4.93,6.58,9.95-.31,14.71-6-6.35-15.75-.56-21.77-6.78,1-2.4,2-4.81,3-7.21C190.41,264.3,196.83,265.25,203.38,269.64Z" transform="translate(-0.81 0)" fill="#a2adb5"/>
  <path d="M360.64,269.24l4.09,8.15c-6.84,5.69-15.13,2.68-22.73,3.8-3.87-3.3-2.77-7.77-2.85-12Q349.89,262.59,360.64,269.24Z" transform="translate(-0.81 0)" fill="#a4afb6"/>
  <path d="M203.38,269.64l-19.12.72c-7.88-8.89.89-9.83,5.4-8.75C194.43,262.75,206.84,254,203.38,269.64Z" transform="translate(-0.81 0)" fill="#415a6b"/>
  <path d="M390.77,269.35l4.62,7.26c-4.35,7.33-14,1.69-18.91,7.76-6.27-3.46-3.77-9.42-4.17-14.56C378.33,264.56,384.51,265.36,390.77,269.35Z" transform="translate(-0.81 0)" fill="#9ea9b2"/>
  <path d="M109.66,269.81l-19.32.52c-.79-15.55,11-8.53,17.41-8.79C115,261.26,113.77,265.86,109.66,269.81Z" transform="translate(-0.81 0)" fill="#465e6e"/>
  <path d="M181.3,277.57c7.43,1.68,18.4-8,21.77,6.78C195.68,282.52,184.28,293.57,181.3,277.57Z" transform="translate(-0.81 0)" fill="#415a6b"/>
  <path d="M236.92,277.5c.94,10.63-7.08,7.48-12.44,7.83-5.59.36-11.71.56-9.92-8.27C222.13,271.44,229.59,271.13,236.92,277.5Z" transform="translate(-0.81 0)" fill="#425b6b"/>
  <path d="M236.92,277.5l-22.36-.44q.33-3.92.67-7.81,10.65-6.64,21.36-.08Z" transform="translate(-0.81 0)" fill="#9faab2"/>
  <path d="M390.77,269.35l-18.46.46c-3.57-3.54-5.65-8.2,1.42-8.19C379.73,261.63,390.65,255,390.77,269.35Z" transform="translate(-0.81 0)" fill="#465e6e"/>
  <path d="M267.42,277.06c1.78,8.83-4.33,8.63-9.92,8.27-5.37-.35-13.39,2.79-12.45-7.83C252.39,271.13,259.85,271.44,267.42,277.06Z" transform="translate(-0.81 0)" fill="#425b6c"/>
  <path d="M360.64,269.24l-21.49,0C345.4,257.61,352.37,257.62,360.64,269.24Z" transform="translate(-0.81 0)" fill="#445d6d"/>
  <path d="M342,281.19c6.41-8.21,15-3.62,22.73-3.8C359.56,293,350.52,285.57,342,281.19Z" transform="translate(-0.81 0)" fill="#415a6b"/>
  <path d="M245.37,269.16c-1.54-10.48,6.35-7.69,11.62-8,5.46-.33,11.41-.51,9.76,8.08C259.61,274.91,252.48,275.05,245.37,269.16Z" transform="translate(-0.81 0)" fill="#425b6c"/>
  <path d="M236.59,269.17l-21.36.08c-1.67-8.6,4.29-8.42,9.75-8.09C230.26,261.48,238.16,258.68,236.59,269.17Z" transform="translate(-0.81 0)" fill="#425b6b"/>
  <path d="M376.48,284.37c1.75-13.69,12.57-5.27,18.91-7.76,2.77,3.88,5.41,8.11-2.38,8.62C387.54,285.59,382,284.7,376.48,284.37Z" transform="translate(-0.81 0)" fill="#465e6e"/>
  <path d="M245.37,269.16l21.38.08q.35,3.9.67,7.82l-22.37.44Z" transform="translate(-0.81 0)" fill="#9faab2"/>
  <path d="M142.75,269.22l-21.34,0C129.57,257.61,136.63,257.6,142.75,269.22Z" transform="translate(-0.81 0)" fill="#445d6d"/>
  <path d="M147.65,281.32c8.23-5.07,16.49-10.39,21.88,3.29C162.09,284.51,153.92,289.2,147.65,281.32Z" transform="translate(-0.81 0)" fill="#435b6c"/>
  <path d="M312.34,284.72c5.31-14.49,13.85-8.72,22.29-3.55C328.38,289.77,319.85,284,312.34,284.72Z" transform="translate(-0.81 0)" fill="#435b6c"/>
  <path d="M173,269.38,152,268.94C161.64,257.56,168,257.7,173,269.38Z" transform="translate(-0.81 0)" fill="#445c6d"/>
  <path d="M241,231.41c-45,0-90-.35-135,.23-12.29.16-16-3.75-15.93-16.09q.87-89,0-178.09C90,25.19,93.74,21.48,106,21.54q135,.66,270,0c12.22-.06,16,3.59,15.92,15.89q-.84,89,0,178.09c.12,12.3-3.57,16.28-15.9,16.12C331,231.05,286,231.41,241,231.41Z" transform="translate(-0.81 0)" fill="#55bfea"/>
</svg>
