<svg id="Layer_1" data-name="Layer 1" xmlns="http://www.w3.org/2000/svg" viewBox="0 0 478 427.11">
  <title>videoRecorder</title>
  <path d="M356.36,431c-2.43,17.12-13.75,25.21-29.57,25.28q-147.59.63-295.16,0c-19.17-.09-31-12.57-31.19-32.53q-.86-92.46,0-184.94c.19-20.34,12.72-32.89,33.11-33q145.73-.69,291.43,0c14.54.05,26.71,5.91,31,21.76,3.91,56,9.25,112.06,1.68,168.24C356.05,407.41,358.66,419.32,356.36,431Z" transform="translate(0 -29.49)" fill="#415a6b"/>
  <path d="M95.83,29.5c43.84.41,79.55,36.69,78.9,80.14A79.57,79.57,0,0,1,94,188c-43.87-.37-79.39-36.47-78.84-80.13S51.82,29.08,95.83,29.5Z" transform="translate(0 -29.49)" fill="#40596a"/>
  <path d="M271.87,29.51c43.84.58,79.45,37.24,78.27,80.58-1.2,44.43-36.69,78.56-81,77.89A79.13,79.13,0,0,1,191,107.41C191.7,63.54,227.64,28.92,271.87,29.51Z" transform="translate(0 -29.49)" fill="#40596a"/>
  <path d="M397,269.91l81-31V424.74l-81.3-32A18.7,18.7,0,0,1,391.92,381q-1.1-49.8,0-99.6A15.51,15.51,0,0,1,397,269.91Z" transform="translate(0 -29.49)" fill="#415a6b"/>
  <path d="M392.87,392.34l-33.47.73c-4.2-37.66-.77-75.45-1.86-113.16-.18-6.38,2.82-8.93,9-8.82,6.82.12,13.65,0,20.47,0,5.49,0,7.88,2.84,7.74,8.1C393.74,316.92,397.19,354.69,392.87,392.34Z" transform="translate(0 -29.49)" fill="#344a5e"/>
  <path d="M392.87,392.34c.08-34.81-.35-69.63.52-104.41.33-13.12-5.27-15.24-16.6-15.3-11.88-.06-18.12,1.81-17.73,16,.95,34.78.33,69.6.34,104.41-1.42,12.61,2.87,25.68-3,37.93l-.42-203.46c.95,2.24,2.24,4.39,2.78,6.72,2.62,11.19-5.16,26.7,4.15,33,8.23,5.56,22.53,2.13,34.15,2.66q-.16,61.43-.32,122.83Z" transform="translate(0 -29.49)" fill="#748592"/>
  <path d="M118.77,340.25c-18.07,0-36.21-1.07-54.17.33-14.93,1.17-21.33-6.38-22.25-18.76a381.33,381.33,0,0,1-.44-54.08c.92-13.65,10.6-20.8,24.25-20.9,34.88-.23,69.77-.45,104.64.13,16,.26,25.19,8.1,24.09,25.88a421.62,421.62,0,0,0,0,44.83c.78,17.24-7.35,23.38-23.77,22.73C153.67,339.71,136.21,340.25,118.77,340.25Z" transform="translate(0 -29.49)" fill="#344a5e"/>
  <path d="M232.54,290.3c1.08-9.39,6-16,15-16.48,10.08-.53,16.75,6.57,16.9,16,.14,8.71-6.77,15.41-15.57,15.5S234.86,298.59,232.54,290.3Z" transform="translate(0 -29.49)" fill="#64c0b4"/>
  <path d="M295.77,305.26c-9.14-1.78-14.79-7.09-14.72-16.21.07-10.53,7.34-15.77,16.87-15.14,9,.6,13.83,7.09,13.37,16.58C310.82,300.45,304.17,303.84,295.77,305.26Z" transform="translate(0 -29.49)" fill="#ed6f5a"/>
</svg>
