<svg id="Layer_1" data-name="Layer 1" xmlns="http://www.w3.org/2000/svg" viewBox="0 0 490.03 490.49">
  <title>core</title>
  <g>
    <path d="M27.23,26.78c-13.79,13.43-21,30.08-21,49.49q-.67,174.65-1,349.3A68.91,68.91,0,0,0,74,494.9q175,1.39,350,1.91a68.65,68.65,0,0,0,69.32-68.59q1.42-174.64,1.91-349.3c.11-39.41-30.53-70.34-69.94-70.65Q251,6.89,76.75,6.32C57.61,6.23,41.08,13.09,27.23,26.78Z" transform="translate(-5.24 -6.32)" fill="#fff"/>
    <path d="M27.23,26.78C41.08,13.09,57.61,6.23,76.75,6.32q174.3.79,348.58,1.95c39.41.31,70.05,31.24,69.94,70.65q-.51,174.66-1.91,349.3A68.65,68.65,0,0,1,424,496.81q-175-.51-350-1.91A68.91,68.91,0,0,1,5.24,425.57q0-174.64,1-349.3C6.26,56.86,13.44,40.21,27.23,26.78ZM454.11,458.27c9.4-10.06,13.08-21.81,13.11-35.26q.33-170.07,1-340.13c.08-29.33-17.59-47.31-46.74-47.48q-170.07-1-340.12-1.86c-30.22-.15-47.86,17.29-48,47.51Q32.36,251.1,31.5,421.16c-.14,29.32,18,47.48,47.47,47.66q77,.46,154,.85,93.42.51,186.82,1.08C433,470.85,444.49,467,454.11,458.27Z" transform="translate(-5.24 -6.32)"/>
    <path d="M454.11,458.27C444.49,467,433,470.85,419.8,470.75Q326.4,470,233,469.67q-77-.42-154-.85c-29.5-.18-47.61-18.34-47.47-47.66q.86-170.05,1.79-340.11c.17-30.22,17.81-47.66,48-47.51q170.06.89,340.12,1.86c29.15.17,46.82,18.15,46.74,47.48q-.49,170.07-1,340.13C467.19,436.46,463.51,448.21,454.11,458.27ZM273.72,276c12.28-12.16,25-23.93,36.73-36.57,15.19-16.35,14.31-33.91-1.22-46.42-11.44-9.21-24.49-14.11-39-15.63-13.9-1.46-24.33,3.27-31.71,15.47-5.48,9.08-10.76,18.79-18.26,26-8.69,8.39-19.72,14.36-29.71,21.41-7.41,5.22-15.13,10.42-16.08,20.46-1.42,14.94.23,29.56,8.54,42.44,6.9,10.69,14.88,20.37,29.41,20.72,10.17.24,17.64-5.37,24.34-11.55C249.45,300.62,261.43,288.13,273.72,276Zm-78.46-76.93c19.1-18.73,20.22-49.87,2.44-68-18.79-19.14-50.57-19.68-69.43-1.19-18.16,17.82-19.68,48.59-3.25,65.68C145.75,217.12,175.34,218.59,195.26,199.05Zm32.43-10c2.26-4.16,4.26-7.88,6.3-11.58,6.84-12.42,17.22-17.85,31.34-15.66,5.15.79,10.23,2.29,15.4,2.66,2.9.2,6.79-.31,8.72-2.12,8.83-8.27,17.45-16.81,25.54-25.81,11.39-12.68,11.75-24.2-1-35.41-7.68-6.77-17.89-11.55-27.77-14.79-16.13-5.3-24.36-1.58-31.92,13.59-6.68,13.41-16.15,23.21-30,28.8-3.93,1.59-4.69,3.41-3,7.56,5.35,13.17,6.83,26.73,1.22,40.21C220.19,182.25,221.57,186,227.69,189Zm-98.07,33.41c-5.68,14.77-15.72,23.62-28.89,29.29a55.67,55.67,0,0,0-6.18,3.51c-6.41,3.82-9.45,9.15-9.44,16.94,0,13.95,4.31,26.75,12.87,37,9.48,11.34,19.73,17.79,34.33,6.52,8.22-6.35,15.29-14.15,23.28-20.83,5.25-4.39,5.72-8.6,4.24-15.36-5.64-25.75-2-36.66,21.11-46.41,3.34-1.4,6.34-3.6,9.5-5.43.07-.82.15-1.63.22-2.45-2.91-1-6.49-3.71-8.63-2.85C164.8,229.29,147.7,231.71,129.62,222.44Zm104-162.89c-13-13.42-34.55-13.07-49.07.8-12.46,11.91-12.57,35-.22,47.67a35.09,35.09,0,0,0,49.81.46C247.9,95.08,247.68,74,233.64,59.55ZM105.82,187.34c-12.76-13.52-34-14.5-47.29-2.18-13.79,12.76-15.21,35.15-3,47.93,14.27,15,35.18,16.66,48.76,3.87C119.69,222.43,120.32,202.69,105.82,187.34ZM384.09,319.4c7.84-.62,31.16,22.6,30.93,31.2l6.14-6.08c-11.91-3.86-17.22-15.31-26.25-22.44l1-1.75,36,12-13.75-36,1.68-1c8.06,8.91,18.45,15.63,24,26.82l10.46-10.35c-9.33-1.45-30-22.24-31.39-31.58a25,25,0,0,1-2.55,2.5c-5.16,3.83-6.77,7.85-3.45,14.32,3.85,7.49,6.16,15.77,9.56,24.83-8.5-2.81-15.92-4.55-22.68-7.69C395.25,310.07,388.62,310.66,384.09,319.4Zm-56.53-2.56,10.05-10-15.67-15.81c5-5.47,8.55-5.71,15.49-.22,11.22,8.87,10.83,6.13,17.81-2.07-9.57,1.87-15.68-11.94-26.88-4.81,1.2-3,2.66-5,2.59-6.84-.13-3.78.15-9.24-2.06-10.87-2.53-1.86-7.6-.59-11.5-.11-1.68.2-3.4,1.6-4.72,2.86-5.48,5.24-10.82,10.64-16.54,16.31C304.84,285.79,327.12,308.27,327.56,316.84Zm-55.15-10c-10,9.9-10.39,25.07-.87,34.81a22.74,22.74,0,0,0,32.76.28c9.88-9.86,10.24-25.85.81-35.64C296.14,296.94,282.15,297.18,272.41,306.82Zm83.1-51.7L368,250.78l-7.46-7.53-4.33,12.65-14.9-15,20.27-12-5-3.17L331.91,250.2c7.13-.78,30.69,22.84,31.3,31.42,6.76-6.7,13.35-13.56,20.32-20,4.41-4.07,8-7.76,1.88-12.79a18.19,18.19,0,0,1-.31,3.36c-1.81,7.19-5.63,13.63-12.43,16.16-6.33,2.36-8.78-5.08-12.89-8.26C358.7,259.25,358,258,355.51,255.12Zm-4.58,132.46-6.86-6.92-4.67,12.21L324.68,378l20.64-12.82,1,1.74L339.82,363l-24.27,24c6.71-.58,30.34,22.94,31.13,31.36,6.74-6.68,13.42-13.42,20.25-20,3.95-3.81,8.28-7.35,1.8-12.09a15.92,15.92,0,0,1-.12,2.06c-1.29,7.75-5.54,14.21-12.39,17-6.57,2.71-9.17-5.13-13.43-8.45-1.06-.83-1.72-2.16-3.61-4.63Zm-76-34.67c0,3.57.07,5.23,0,6.88-.24,10-5.12,14.7-15.13,14.35-9.54-.32-15.48-6.39-20.39-13.55-3.5-5.12-4.68-11-1.51-16.76,3.3-5.94,9.15-6.93,15.39-6.41,2.21.19,4.41.43,7.79.76l-8.76-5.93c-2.68,1.48-4.61,2.73-6.69,3.67-11.59,5.21-16.81,15.55-13.87,27.61,3,12.55,16.09,21.12,28.1,17.86C270.83,378.44,279.71,368.87,274.94,352.91ZM408.65,357c-3.48-1-6.85-1.63-9.92-2.94-10.36-4.41-20.58-9.16-31-13.54-2-.84-4.4-.6-6.62-.86.44,2.34.48,4.84,1.38,7,5.53,13.27,11.26,26.45,16.7,39.16l5.62-5.57A10.31,10.31,0,0,1,374.58,369c.47-4.1,6.16-8.59,10.6-10.93,3.68-1.93,12.13,4.88,13.17,9.13ZM282.2,431.31c.1-2.49-.38-4.46.35-5.72,2.18-3.74,4.31-7.9,7.6-10.37,1.13-.84,6.1,2.37,8.54,4.58A221.13,221.13,0,0,1,314.76,436c2.29,2.54,3.65,5.9,5.24,8.54l9.63-9.54c-13.21-6.49-20.83-18.95-33.09-29.91l18.95-9.34c-2.15-2.74-5.36-3.93-9.67.5-7.62,7.82-15.27,15.64-23.32,23C278.26,423.13,277.89,426.47,282.2,431.31Z" transform="translate(-5.24 -6.32)" fill="#fff"/>
    <path d="M273.71,276c-12.28,12.15-24.26,24.64-37,36.35-6.7,6.18-14.17,11.79-24.34,11.55-14.53-.35-22.51-10-29.41-20.72-8.31-12.88-10-27.5-8.54-42.44.95-10,8.67-15.24,16.08-20.46,10-7,21-13,29.71-21.41,7.5-7.23,12.78-16.94,18.26-26,7.38-12.2,17.81-16.93,31.71-15.47,14.52,1.52,27.57,6.42,39,15.63,15.53,12.51,16.41,30.07,1.22,46.42C298.69,252.05,286,263.82,273.71,276Z" transform="translate(-5.24 -6.32)"/>
    <path d="M195.26,199.05c-19.92,19.54-49.51,18.07-70.24-3.49-16.43-17.09-14.91-47.86,3.25-65.68,18.86-18.49,50.64-17.95,69.43,1.19C215.48,149.18,214.36,180.32,195.26,199.05Z" transform="translate(-5.24 -6.32)"/>
    <path d="M227.69,189c-6.12-3.08-7.5-6.78-5.1-12.55,5.61-13.48,4.13-27-1.22-40.21-1.68-4.15-.92-6,3-7.56,13.8-5.59,23.27-15.39,30-28.8,7.56-15.17,15.79-18.89,31.92-13.59,9.88,3.24,20.09,8,27.77,14.79,12.72,11.21,12.36,22.73,1,35.41-8.09,9-16.71,17.54-25.54,25.81-1.93,1.81-5.82,2.32-8.72,2.12-5.17-.37-10.25-1.87-15.4-2.66-14.12-2.19-24.5,3.24-31.34,15.66C232,181.15,230,184.87,227.69,189Z" transform="translate(-5.24 -6.32)"/>
    <path d="M129.62,222.44c18.08,9.27,35.18,6.85,52.41-.08,2.14-.86,5.72,1.82,8.63,2.85-.07.82-.15,1.63-.22,2.45-3.16,1.83-6.16,4-9.5,5.43-23.08,9.75-26.75,20.66-21.11,46.41,1.48,6.76,1,11-4.24,15.36-8,6.68-15.06,14.48-23.28,20.83-14.6,11.27-24.85,4.82-34.33-6.52-8.56-10.24-12.87-23-12.87-37,0-7.79,3-13.12,9.44-16.94a55.67,55.67,0,0,1,6.18-3.51C113.9,246.06,123.94,237.21,129.62,222.44Z" transform="translate(-5.24 -6.32)"/>
    <path d="M233.64,59.55c14,14.48,14.26,35.53.52,48.93a35.09,35.09,0,0,1-49.81-.46c-12.35-12.71-12.24-35.76.22-47.67C199.09,46.48,220.63,46.13,233.64,59.55Z" transform="translate(-5.24 -6.32)"/>
    <path d="M105.82,187.34c14.5,15.35,13.87,35.09-1.56,49.62-13.58,12.79-34.49,11.13-48.76-3.87-12.18-12.78-10.76-35.17,3-47.93C71.84,172.84,93.06,173.82,105.82,187.34Z" transform="translate(-5.24 -6.32)"/>
    <path d="M384.09,319.4c4.53-8.74,11.16-9.33,19.81-5.3,6.76,3.14,14.18,4.88,22.68,7.69-3.4-9.06-5.71-17.34-9.56-24.83-3.32-6.47-1.71-10.49,3.45-14.32a25,25,0,0,0,2.55-2.5c1.41,9.34,22.06,30.13,31.39,31.58L444,322.07c-5.59-11.19-16-17.91-24-26.82l-1.68,1,13.75,36-36-12-1,1.75c9,7.13,14.34,18.58,26.25,22.44L415,350.6C415.25,342,391.93,318.78,384.09,319.4Z" transform="translate(-5.24 -6.32)"/>
    <path d="M327.56,316.84c-.44-8.57-22.72-31-31.43-31.52,5.72-5.67,11.06-11.07,16.54-16.31,1.32-1.26,3-2.66,4.72-2.86,3.9-.48,9-1.75,11.5.11,2.21,1.63,1.93,7.09,2.06,10.87.07,1.89-1.39,3.83-2.59,6.84,11.2-7.13,17.31,6.68,26.88,4.81-7,8.2-6.59,10.94-17.81,2.07-6.94-5.49-10.49-5.25-15.49.22l15.67,15.81ZM305.3,276.06l7.75,7.82,7.55,7.62c1.9-5.44,4.39-9.31,4.16-13-.16-2.48-4.05-6.49-6.49-6.67C314.63,271.56,310.8,274.09,305.3,276.06Z" transform="translate(-5.24 -6.32)"/>
    <path d="M272.41,306.82c9.74-9.64,23.73-9.88,32.7-.55,9.43,9.79,9.07,25.78-.81,35.64a22.74,22.74,0,0,1-32.76-.28C262,331.89,262.4,316.72,272.41,306.82Zm5.14,27.54.83-.49a49.84,49.84,0,0,0,5.05,5c6.12,4.65,14.53,5.63,19.16,2.15,5-3.76,6-9.13,4-14.63-3.53-9.81-10.35-17.15-20.29-20.11-3.82-1.14-10.28-.06-12.73,2.6-2.69,2.92-3.4,9-2.67,13.37S275.22,330.35,277.55,334.36Z" transform="translate(-5.24 -6.32)"/>
    <path d="M355.51,255.12c2.44,2.87,3.19,4.13,4.27,5,4.11,3.18,6.56,10.62,12.89,8.26,6.8-2.53,10.62-9,12.43-16.16a18.19,18.19,0,0,0,.31-3.36c6.08,5,2.53,8.72-1.88,12.79-7,6.45-13.56,13.31-20.32,20-.61-8.58-24.17-32.2-31.3-31.42l24.74-24.51,5,3.17-20.27,12,14.9,15,4.33-12.65,7.46,7.53Z" transform="translate(-5.24 -6.32)"/>
    <path d="M350.93,387.58l-11.75,4.73c1.89,2.47,2.55,3.8,3.61,4.63,4.26,3.32,6.86,11.16,13.43,8.45,6.85-2.82,11.1-9.28,12.39-17a15.92,15.92,0,0,0,.12-2.06c6.48,4.74,2.15,8.28-1.8,12.09-6.83,6.59-13.51,13.33-20.26,20-.78-8.42-24.41-31.94-31.12-31.36l24.27-24,6.47,3.91-1-1.74L324.68,378l14.72,14.87,4.67-12.21Z" transform="translate(-5.24 -6.32)"/>
    <path d="M274.94,352.91c4.77,16-4.11,25.53-15,28.48-12,3.26-25-5.31-28.1-17.86-2.94-12.06,2.28-22.4,13.87-27.61,2.08-.94,4-2.19,6.69-3.67l8.76,5.93c-3.38-.33-5.58-.57-7.79-.76-6.24-.52-12.09.47-15.39,6.41-3.17,5.71-2,11.64,1.51,16.76,4.91,7.16,10.85,13.23,20.39,13.55,10,.35,14.89-4.32,15.13-14.35C275,358.14,275,356.48,274.94,352.91Z" transform="translate(-5.24 -6.32)"/>
    <path d="M408.65,357l-10.3,10.21c-1-4.25-9.49-11.06-13.17-9.13-4.44,2.34-10.13,6.83-10.6,10.93a10.31,10.31,0,0,0,10.28,11.23l-5.62,5.57c-5.44-12.71-11.17-25.89-16.7-39.16-.9-2.15-.94-4.65-1.38-7,2.22.26,4.65,0,6.62.86,10.37,4.38,20.59,9.13,31,13.54C401.8,355.34,405.17,356,408.65,357Zm-43.83-8.2,8,16.65,9.43-9.34Z" transform="translate(-5.24 -6.32)"/>
    <path d="M282.2,431.31c-4.31-4.84-3.94-8.18.3-12.06,8.05-7.37,15.7-15.19,23.32-23,4.31-4.43,7.52-3.24,9.67-.5l-18.95,9.34c12.26,11,19.88,23.42,33.09,29.91L320,444.53c-1.59-2.64-2.95-6-5.24-8.54a221.13,221.13,0,0,0-16.07-16.19c-2.44-2.21-7.41-5.42-8.54-4.58-3.29,2.47-5.42,6.63-7.6,10.37C281.82,426.85,282.3,428.82,282.2,431.31Z" transform="translate(-5.24 -6.32)"/>
    <path d="M305.3,276.06c5.5-2,9.33-4.5,13-4.25,2.44.18,6.33,4.19,6.49,6.67.23,3.71-2.26,7.58-4.16,13l-7.55-7.62Z" transform="translate(-5.24 -6.32)" fill="#fff"/>
    <path d="M277.55,334.36c-2.33-4-5.92-7.81-6.63-12.09s0-10.45,2.67-13.37c2.45-2.66,8.91-3.74,12.73-2.6,9.94,3,16.76,10.3,20.29,20.11,2,5.5,1,10.87-4,14.63-4.63,3.48-13,2.5-19.16-2.15a49.84,49.84,0,0,1-5.05-5Z" transform="translate(-5.24 -6.32)" fill="#fff"/>
    <path d="M364.82,348.77l17.42,7.31-9.43,9.34Z" transform="translate(-5.24 -6.32)" fill="#fff"/>
  </g>
</svg>
