<svg id="Capa_1" data-name="Capa 1" xmlns="http://www.w3.org/2000/svg" viewBox="0 0 477.06 423">
  <title>loud</title>
  <path d="M128.54,131.93H50.85c-21.5,0-38.85,16.61-38.85,37.18V325.89c0,20.57,17.35,37.18,38.85,37.18h77.69c7.26,0,13-5.45,13-12.39V144.32C141.49,137.38,135.8,131.93,128.54,131.93Z" transform="translate(-12 -36)" fill="#0d70b2"/>
  <path d="M12,243.46H141.49V350.68c0,6.94-5.69,12.39-13,12.39H50.85c-21.5,0-38.85-16.61-38.85-37.18Z" transform="translate(-12 -36)" fill="#0059aa"/>
  <path d="M295.67,66.67a5.11,5.11,0,0,1,.24-1.62,37.27,37.27,0,0,0-21.56-25.57,39.41,39.41,0,0,0-41.18,5.45L124.92,131.19V363.81l108.25,86.26a39.35,39.35,0,0,0,41.18,5.45,37.31,37.31,0,0,0,21.32-24.64Z" transform="translate(-12 -36)" fill="#17ace8"/>
  <path d="M295.67,243.46H124.92V363.81l108.25,86.26a39.35,39.35,0,0,0,41.18,5.45,37.31,37.31,0,0,0,21.32-24.64Z" transform="translate(-12 -36)" fill="#1689fc"/>
  <g>
    <path d="M488.79,235.73c-1.31,61.62-18.73,114.91-54.3,162a60.09,60.09,0,0,1-4,5c-6.36,6.83-15.2,8-22,3S400.78,391,406,382.87c8.64-13.36,18.66-26.09,25.47-40.34,40.53-84.79,33.08-165.92-20.46-243-1.21-1.75-2.53-3.42-3.78-5.14-6.72-9.27-6.12-18.82,1.53-24.35,7.29-5.27,16.55-3.43,23.19,4.93a260.33,260.33,0,0,1,39.91,71C483.12,175.85,487.91,206.83,488.79,235.73Z" transform="translate(-12 -36)" fill="#fd003a" stroke="#000" stroke-miterlimit="10" stroke-width="0.25"/>
    <path d="M430.68,238.14C429.43,281.7,417,321.29,392,356.63c-3.45,4.87-10.2,9.15-16,10-4,.59-11.4-4.28-12.86-8.3-1.8-5-.88-12.86,2.09-17.37C380,318.5,390.93,294.71,395.36,268q11.5-69.1-26.82-127.62c-1.55-2.36-3.38-4.55-4.84-7-5-8.3-3.21-17.57,4.25-22.44s15.93-3.28,22.18,5.23a193.68,193.68,0,0,1,34.67,77.85C427.67,208.59,428.78,223.44,430.68,238.14Z" transform="translate(-12 -36)" fill="#fd003a" stroke="#000" stroke-miterlimit="10" stroke-width="0.25"/>
    <path d="M367.52,238.67c-.57,26.17-7.28,51.13-21.7,73.83-5.75,9.07-14.47,11.75-22.54,7.22-7.9-4.43-10.08-13.94-4.62-23.17,23.24-39.28,23-78.39-.16-117.6-5.09-8.61-3.12-17.88,4.13-22.53,7.7-4.93,17.16-2.59,22.81,6.23C360.11,185.61,367.1,210.88,367.52,238.67Z" transform="translate(-12 -36)" fill="#fd003a" stroke="#000" stroke-miterlimit="10" stroke-width="0.25"/>
  </g>
  <path d="M457.59,243.22Q456,292,431.91,342.53c-6.81,14.25-16.82,27-25.47,40.34-5.26,8.14-4.31,17.76,2.5,22.82s15.59,3.86,22-3a62.12,62.12,0,0,0,4-5c34.12-45.17,51.51-96,54-154.48C481.06,243.37,463.33,243.35,457.59,243.22Z" transform="translate(-12 -36)" fill="#dd0030" stroke="#000" stroke-miterlimit="10" stroke-width="0.25"/>
  <path d="M398.27,243.47a193.28,193.28,0,0,1-2.5,24.55c-4.44,26.69-15.32,50.48-30.12,72.94-3,4.51-3.88,12.37-2.08,17.37,1.45,4,8.84,8.89,12.85,8.3,5.77-.85,12.52-5.13,16-10,24-33.89,36.4-71.69,38.48-113.15C425.07,243.64,405.54,243.6,398.27,243.47Z" transform="translate(-12 -36)" fill="#dd0030" stroke="#000" stroke-miterlimit="10" stroke-width="0.25"/>
  <path d="M336.22,243.4q-1.46,26.53-17.15,53.15c-5.46,9.23-3.29,18.74,4.61,23.17,8.08,4.53,16.79,1.85,22.55-7.22,13.56-21.35,20.27-44.7,21.49-69.17C361.87,243.46,343.93,243.51,336.22,243.4Z" transform="translate(-12 -36)" fill="#dd0030" stroke="#000" stroke-miterlimit="10" stroke-width="0.25"/>
  <path d="M336.36,243.2q15.69-.13,31.37,0" transform="translate(-12 -36)" fill="#dd0030" stroke="#000" stroke-miterlimit="10" stroke-width="0.25"/>
</svg>
