<?xml version="1.0" encoding="iso-8859-1"?>
<!-- Generator: Adobe Illustrator 19.0.0, SVG Export Plug-In . SVG Version: 6.00 Build 0)  -->
<svg version="1.1" id="Capa_1" xmlns="http://www.w3.org/2000/svg" xmlns:xlink="http://www.w3.org/1999/xlink" x="0px" y="0px"
	 viewBox="0 0 512.001 512.001" style="enable-background:new 0 0 512.001 512.001;" xml:space="preserve">
<path style="fill:#0D70B2;" d="M135,116.115H45c-24.902,0-45,20.099-45,45v189.772c0,24.899,20.098,45,45,45h90
	c8.401,0,15-6.601,15-15V131.115C150,122.714,143.401,116.115,135,116.115z"/>
<path style="fill:#0059AA;" d="M0,251.115h150v129.772c0,8.399-6.599,15-15,15H45c-24.902,0-45-20.101-45-45V251.115z"/>
<path style="fill:#FD003A;" d="M507.498,300.614c6.002,5.7,6.002,15.3,0,21c-5.702,6-15.297,6-20.999,0l-49.501-49.2l-49.501,49.2
	c-5.702,6-15.297,6-20.999,0c-6.002-5.7-6.002-15.3,0-21l49.2-49.499l-49.2-49.501c-6.002-5.7-6.002-15.3,0-21
	c5.702-5.999,15.297-5.999,20.999,0l49.501,49.2l49.501-49.2c5.702-5.999,15.297-5.999,20.999,0c6.002,5.7,6.002,15.3,0,21
	l-49.2,49.501c0,0,0,0,0.3,0.3L507.498,300.614z"/>
<path style="fill:#17ACE8;" d="M303.9,4.213c-16.198-7.5-34.2-4.799-47.699,6.601L130.8,115.214v281.271c0,0,0,0,0,0.3
	l125.402,104.401c13.198,11.4,31.501,14.099,47.699,6.599c16.198-7.5,26.1-23.399,26.1-41.1V45.315
	C330,27.614,320.098,11.713,303.9,4.213z"/>
<path style="fill:#DD0030;" d="M507.498,321.614c-5.702,6-15.297,6-20.999,0l-49.501-49.2l-49.501,49.2c-5.702,6-15.297,6-20.999,0
	c-6.002-5.7-6.002-15.3,0-21l49.2-49.499h42.598c0,0,0,0,0.3,0.3l48.9,49.199C513.501,306.314,513.501,315.914,507.498,321.614z"/>
<path style="fill:#1689FC;" d="M330,251.115v215.571c0,17.701-9.902,33.6-26.1,41.1c-16.198,7.5-34.501,4.801-47.699-6.599
	L130.8,396.786c0-0.3,0-0.3,0-0.3V251.115H330z"/>
<g>
</g>
<g>
</g>
<g>
</g>
<g>
</g>
<g>
</g>
<g>
</g>
<g>
</g>
<g>
</g>
<g>
</g>
<g>
</g>
<g>
</g>
<g>
</g>
<g>
</g>
<g>
</g>
<g>
</g>
</svg>
